<svg xmlns="http://www.w3.org/2000/svg" xmlns:xlink="http://www.w3.org/1999/xlink" width="46.904" height="52.341" viewBox="0 0 46.904 52.341"><defs><clipPath id="a"><rect width="46.904" height="52.341" fill="#8e0014"/></clipPath></defs><g clip-path="url(#a)"><path d="M187.362,102.78c1.368.8,1.353,2.088-.023,2.883a5.472,5.472,0,0,1-4.97,0c-1.37-.8-1.37-2.088.008-2.883a5.5,5.5,0,0,1,4.985,0" transform="translate(-161.408 -90.95)" fill="#8e0014"/><path d="M256.65,208.358c3.544-1.992,7.1-3.971,10.642-5.969,1.367-.429,2.286-4,.009-2.98q-5.409,2.769-10.827,5.555c-1.488.666-2.379,4.565.177,3.394" transform="translate(-226.997 -177.324)" fill="#cdcdcd"/><path d="M256.649,268.45c2.412-1.349,4.834-2.685,7.246-4.041,1.188-.65,2.367-1.32,3.556-1.976,1.264-.536,2.03-3.9-.151-2.9q-5.41,2.75-10.827,5.518c-1.488.666-2.379,4.565.177,3.394" transform="translate(-226.997 -230.842)" fill="#cdcdcd"/><path d="M268.833,315.281c-.145-1.662-1.868-.383-2.707.026q-1.954.993-3.91,2.007-2.061,1.049-4.126,2.118c-1.522.673-3.262,1.62-3.194,3.518.174,1.914,2.027.552,2.975.013q1.956-1.085,3.909-2.188c1.361-.75,2.712-1.52,4.074-2.276,1.286-.681,3.072-1.511,2.979-3.217" transform="translate(-226.874 -279.883)" fill="#cdcdcd"/><path d="M57.468,207.365a4.558,4.558,0,0,1,2.067,3.589c0,1.316-.935,1.847-2.08,1.186a4.56,4.56,0,0,1-2.074-3.585c0-1.325.936-1.856,2.088-1.19Z" transform="translate(-49.293 -184.314)" fill="#8e0014"/><path d="M132.883,337.991a4.572,4.572,0,0,1,2.074,3.593c0,1.316-.943,1.842-2.088,1.181a4.56,4.56,0,0,1-2.074-3.585c0-1.325.936-1.856,2.088-1.19Z" transform="translate(-116.416 -300.578)" fill="#8e0014"/><path d="M2.931,10.938A5.884,5.884,0,0,0,0,16.016V36.326A5.878,5.878,0,0,0,2.931,41.4L20.52,51.558a5.878,5.878,0,0,0,5.863,0L43.972,41.4A5.878,5.878,0,0,0,46.9,36.326V16.016a5.881,5.881,0,0,0-2.931-5.077L26.383.783a5.881,5.881,0,0,0-5.863,0ZM42.8,12.97a3.471,3.471,0,0,1,.477.368L23.452,24.783,3.626,13.338A3.482,3.482,0,0,1,4.1,12.97L21.693,2.815a3.524,3.524,0,0,1,3.518,0Zm0,26.4L25.211,49.528a3.493,3.493,0,0,1-.586.242V26.814L44.471,15.357a3.442,3.442,0,0,1,.088.659V36.326A3.525,3.525,0,0,1,42.8,39.372ZM2.345,16.016a3.441,3.441,0,0,1,.088-.659L22.279,26.814V49.768a3.4,3.4,0,0,1-.586-.242L4.1,39.372a3.527,3.527,0,0,1-1.759-3.046Z" transform="translate(0 0)" fill="#8e0014"/></g></svg>