<svg xmlns="http://www.w3.org/2000/svg" width="71.968" height="68.766" viewBox="0 0 71.968 68.766">
  <g id="old-map" transform="translate(-10 -17.117)">
    <path id="Caminho_143" data-name="Caminho 143" d="M37.954,86.2H97.348v45.527H37.954Z" transform="translate(-21.667 -53.543)" fill="#fedcc6"/>
    <path id="Caminho_144" data-name="Caminho 144" d="M37.954,86.2h9.63v45.527h-9.63Z" transform="translate(-21.667 -53.543)" fill="#d3a285"/>
    <path id="Caminho_145" data-name="Caminho 145" d="M259.836,86.2h9.493v45.527h-9.493Z" transform="translate(-193.648 -53.543)" fill="#d3a285"/>
    <path id="Caminho_146" data-name="Caminho 146" d="M37.954,105.754H97.348v36.73H37.954Z" transform="translate(-21.667 -68.702)" fill="#655baa"/>
    <path id="Caminho_147" data-name="Caminho 147" d="M37.954,105.754H97.348v36.73H37.954Z" transform="translate(-21.667 -68.702)" fill="#ef9b7f"/>
    <path id="Caminho_148" data-name="Caminho 148" d="M37.954,105.754h9.63v36.73h-9.63Z" transform="translate(-21.667 -68.702)" fill="#c96a52"/>
    <path id="Caminho_149" data-name="Caminho 149" d="M259.836,105.754h9.493v36.73h-9.493Z" transform="translate(-193.648 -68.702)" fill="#d6755a"/>
    <path id="Caminho_150" data-name="Caminho 150" d="M177.827,105.754l-.193,1.561a3.115,3.115,0,0,1-2.01,2.534,6.8,6.8,0,0,0-4.184,3.913c-.562,1.532.275,2.674,1.483,3.494a2.9,2.9,0,0,1,1.2,1.889l.546,2.98s.129,1.954,2.786,2.579a17.394,17.394,0,0,0,4.221.257v1.1a2.883,2.883,0,0,1-.845,2.043,7.645,7.645,0,0,0-2.282,7.232,6.155,6.155,0,0,0,.495,1.333c.362.656,1.992,3.038,6.334,2.4a2.5,2.5,0,0,0,1.452-.714c.55-.572,1.005-1.61.418-3.428a3.333,3.333,0,0,1,.334-3.061l1.1-1.651a3.323,3.323,0,0,1,2.246-1.439l9.743-1.313V105.754Z" transform="translate(-124.993 -68.702)" fill="#c96a52"/>
    <path id="Caminho_151" data-name="Caminho 151" d="M27.423,24.552v4.325a1.921,1.921,0,0,1-1.754,1.939,1.879,1.879,0,0,1-2-1.874V24.591a1.581,1.581,0,0,0-.512-1.187,3.6,3.6,0,1,1,4.811-.026,1.593,1.593,0,0,0-.542,1.174Z" transform="translate(-9.257)" fill="#ef9b7f"/>
    <path id="Caminho_152" data-name="Caminho 152" d="M22.574,67.192c0-2.7-2.815-4.89-6.287-4.89S10,64.491,10,67.192v41.121H22.574Z" transform="translate(0 -35.023)" fill="#fedcc6"/>
    <ellipse id="Elipse_13" data-name="Elipse 13" cx="6.287" cy="4.89" rx="6.287" ry="4.89" transform="translate(10 68.4)" fill="#7f4242"/>
    <path id="Caminho_153" data-name="Caminho 153" d="M27.422,272.043v-3.216a1.921,1.921,0,0,0-1.754-1.939,1.879,1.879,0,0,0-2,1.874V272a1.581,1.581,0,0,1-.512,1.187,3.6,3.6,0,1,0,4.812.026A1.593,1.593,0,0,1,27.422,272.043Z" transform="translate(-9.257 -193.595)" fill="#ef9b7f"/>
    <path id="Caminho_154" data-name="Caminho 154" d="M259.836,128.74l9.493-1.279V105.754h-9.493Z" transform="translate(-193.648 -68.702)" fill="#a35244"/>
    <path id="Caminho_155" data-name="Caminho 155" d="M287.758,24.552v4.325a1.921,1.921,0,0,0,1.754,1.939,1.879,1.879,0,0,0,2-1.874V24.591a1.581,1.581,0,0,1,.512-1.187,3.6,3.6,0,1,0-4.812-.026,1.593,1.593,0,0,1,.542,1.174Z" transform="translate(-213.956 0)" fill="#ef9b7f"/>
    <path id="Caminho_156" data-name="Caminho 156" d="M274.091,67.192c0-2.7,2.815-4.89,6.287-4.89s6.287,2.189,6.287,4.89v41.121H274.091Z" transform="translate(-204.697 -35.023)" fill="#fedcc6"/>
    <ellipse id="Elipse_14" data-name="Elipse 14" cx="6.287" cy="4.89" rx="6.287" ry="4.89" transform="translate(69.394 68.4)" fill="#7f4242"/>
    <path id="Caminho_157" data-name="Caminho 157" d="M287.761,272.043v-3.216a1.921,1.921,0,0,1,1.754-1.939,1.879,1.879,0,0,1,2,1.874V272a1.581,1.581,0,0,0,.512,1.187,3.6,3.6,0,1,1-4.811.027A1.593,1.593,0,0,0,287.761,272.043Z" transform="translate(-213.959 -193.595)" fill="#ef9b7f"/>
    <path id="Caminho_158" data-name="Caminho 158" d="M97,168.563a.787.787,0,0,0-1.233,0l-3.631,4.576a.787.787,0,1,0,1.233.979l3.015-3.8,3.015,3.8a.787.787,0,1,0,1.233-.979Z" transform="translate(-63.534 -117.155)" fill="#c96a52"/>
    <path id="Caminho_159" data-name="Caminho 159" d="M108.1,145.017l-3.631-4.576a.787.787,0,0,0-1.233,0l-.825,1.04L98.5,136.543a.787.787,0,0,0-1.233,0l-2.751,3.467a.787.787,0,1,0,1.233.979l2.135-2.69,3.531,4.448-.791,1a.787.787,0,1,0,1.233.979l2-2.526,3.014,3.8a.787.787,0,1,0,1.233-.979Z" transform="translate(-65.373 -92.336)" fill="#c96a52"/>
    <path id="Caminho_160" data-name="Caminho 160" d="M230.458,138.631a2.411,2.411,0,0,0-1.653.637l-.1.083a.787.787,0,1,0,.962,1.246l.125-.1a.914.914,0,0,1,1.34,0,2.465,2.465,0,0,0,3.308,0,.916.916,0,0,1,1.342,0c.065.052.131.1.2.155a.787.787,0,1,0,.936-1.266c-.052-.038-.1-.078-.151-.118a2.466,2.466,0,0,0-3.308,0,.915.915,0,0,1-1.341,0A2.411,2.411,0,0,0,230.458,138.631Z" transform="translate(-169.278 -94.185)" fill="#a35244"/>
    <path id="Caminho_161" data-name="Caminho 161" d="M208.374,124.075l.125-.1a.914.914,0,0,1,1.34,0,2.465,2.465,0,0,0,3.308,0,.916.916,0,0,1,1.342,0c.065.052.131.1.2.155a.787.787,0,1,0,.936-1.266c-.052-.038-.1-.078-.151-.118a2.466,2.466,0,0,0-3.309,0,.915.915,0,0,1-1.341,0,2.465,2.465,0,0,0-3.308,0l-.1.083a.787.787,0,1,0,.963,1.245Z" transform="translate(-152.777 -81.38)" fill="#a35244"/>
    <path id="Caminho_162" data-name="Caminho 162" d="M237.041,178.912c-.052-.038-.1-.078-.151-.119a2.466,2.466,0,0,0-3.309,0,.915.915,0,0,1-1.341,0,2.464,2.464,0,0,0-3.308,0l-.1.083a.787.787,0,1,0,.963,1.245l.125-.1a.914.914,0,0,1,1.34,0,2.465,2.465,0,0,0,3.308,0,.916.916,0,0,1,1.342,0c.065.052.131.1.2.155a.787.787,0,1,0,.936-1.266Z" transform="translate(-169.377 -124.821)" fill="#a35244"/>
    <path id="Caminho_163" data-name="Caminho 163" d="M213.818,163.939a.907.907,0,0,1,.671.292c.065.053.131.1.2.155a.787.787,0,1,0,.935-1.266c-.052-.038-.1-.078-.152-.119a2.466,2.466,0,0,0-3.308,0,.915.915,0,0,1-1.341,0,2.464,2.464,0,0,0-3.308,0l-.1.083a.787.787,0,1,0,.963,1.245l.125-.1a.914.914,0,0,1,1.34,0,2.465,2.465,0,0,0,3.308,0A.908.908,0,0,1,213.818,163.939Z" transform="translate(-152.777 -112.581)" fill="#a35244"/>
    <g id="Grupo_108" data-name="Grupo 108" transform="translate(26.935 38.862)">
      <path id="Caminho_164" data-name="Caminho 164" d="M147.666,133.254a.787.787,0,0,1-.787-.787v-2.536a.787.787,0,0,1,1.574,0v2.536a.787.787,0,0,1-.787.787Z" transform="translate(-133.03 -125.694)" fill="#c96a52"/>
      <path id="Caminho_165" data-name="Caminho 165" d="M91.634,237.547a.787.787,0,0,1-.787-.787V234.4a.787.787,0,0,1,1.574,0v2.358a.787.787,0,0,1-.787.787Z" transform="translate(-89.599 -206.669)" fill="#c96a52"/>
      <path id="Caminho_166" data-name="Caminho 166" d="M130.467,224.324a.787.787,0,0,1-.787-.787v-2.358a.787.787,0,1,1,1.574,0v2.358a.787.787,0,0,1-.787.787Z" transform="translate(-119.699 -196.42)" fill="#c96a52"/>
      <path id="Caminho_167" data-name="Caminho 167" d="M169.3,230.653a.787.787,0,0,1-.787-.787v-2.358a.787.787,0,0,1,1.574,0v2.358A.787.787,0,0,1,169.3,230.653Z" transform="translate(-149.798 -201.326)" fill="#c96a52"/>
      <rect id="Retângulo_98" data-name="Retângulo 98" width="4.069" height="5.008" rx="2.035" transform="translate(0 23.16)" fill="#c96a52"/>
      <rect id="Retângulo_99" data-name="Retângulo 99" width="4.069" height="5.008" rx="2.035" transform="translate(8.733 20.22)" fill="#c96a52"/>
      <rect id="Retângulo_100" data-name="Retângulo 100" width="4.069" height="5.008" rx="2.035" transform="translate(17.467 21.897)" fill="#c96a52"/>
      <rect id="Retângulo_101" data-name="Retângulo 101" width="4.069" height="5.008" rx="2.035" transform="translate(12.602 0)" fill="#c96a52"/>
    </g>
  </g>
</svg>
