<svg xmlns="http://www.w3.org/2000/svg" width="62.542" height="64.574" viewBox="0 0 62.542 64.574">
  <g id="rpg" transform="translate(-13.34 -0.001)">
    <path id="Caminho_2259" data-name="Caminho 2259" d="M135.925,105.107a5.665,5.665,0,0,1-5.11,5.115l4.791,4.791,7.027-3.2Z" transform="translate(-103.378 -90.687)" fill="#c2bce0"/>
    <g id="Grupo_2020" data-name="Grupo 2020" transform="translate(13.34 0.001)">
      <g id="Grupo_2015" data-name="Grupo 2015" transform="translate(5.744)">
        <path id="Caminho_2260" data-name="Caminho 2260" d="M409.277,34.866l1.587-1.587a1.736,1.736,0,0,0,0-2.455l-2.578-2.578a1.736,1.736,0,0,0-2.455,0l-1.587,1.587Z" transform="translate(-358.38 -23.932)" fill="#fea613"/>
        <path id="Caminho_2261" data-name="Caminho 2261" d="M308.581,142.678l-2.087-2.087a1.592,1.592,0,0,1-.378-.6l-2.46,2.46,4.218,1.92,1.311-1.311A1.588,1.588,0,0,1,308.581,142.678Z" transform="translate(-271.591 -120.783)" fill="#fb8801"/>
        <path id="Caminho_2262" data-name="Caminho 2262" d="M320.436,112.586a1.736,1.736,0,0,0,0,2.455l2.087,2.087a1.736,1.736,0,0,0,2.455,0l2.323-2.323-4.543-4.543Z" transform="translate(-285.631 -95.136)" fill="#fea613"/>
        <g id="Grupo_2014" data-name="Grupo 2014" transform="translate(4.52 45.519)">
          <path id="Caminho_2263" data-name="Caminho 2263" d="M102.955,334.018a4.428,4.428,0,0,1,2.632.858l.34.249-.128-.4a21.937,21.937,0,0,1-.708-2.92l-2.216,2.216Z" transform="translate(-102.875 -331.804)" fill="#fea613"/>
        </g>
        <path id="Caminho_2264" data-name="Caminho 2264" d="M311.93,25.335,296.252,9.656a1.642,1.642,0,0,1,0-2.323L303.1.482a1.642,1.642,0,0,1,2.323,0L321.1,16.16a1.642,1.642,0,0,1,0,2.323l-6.852,6.852A1.643,1.643,0,0,1,311.93,25.335Z" transform="translate(-264.788 -0.001)" fill="#aca6d6"/>
        <path id="Caminho_2265" data-name="Caminho 2265" d="M301.223,9.656a1.642,1.642,0,0,1,0-2.323l5.528-5.528L305.427.482a1.642,1.642,0,0,0-2.323,0l-6.852,6.852a1.642,1.642,0,0,0,0,2.323l15.678,15.678a1.643,1.643,0,0,0,2.323,0l1.324-1.324Z" transform="translate(-264.789 -0.001)" fill="#978ecb"/>
        <path id="Caminho_2266" data-name="Caminho 2266" d="M77.424,347.97a4.6,4.6,0,1,0,1.7,3.783A19.779,19.779,0,0,1,77.424,347.97Z" transform="translate(-69.925 -299.348)" fill="#fb8801"/>
        <circle id="Elipse_20" data-name="Elipse 20" cx="1.997" cy="1.997" r="1.997" transform="translate(2.604 50.2)" fill="#fedf30"/>
      </g>
      <g id="Grupo_2019" data-name="Grupo 2019" transform="translate(0 0.324)">
        <g id="Grupo_2018" data-name="Grupo 2018">
          <path id="Caminho_2267" data-name="Caminho 2267" d="M67.089,41.4a5.65,5.65,0,0,1,2.1-1.334l-3.533-3.533a4.01,4.01,0,0,1-3.437,3.437L65.758,43.5A5.637,5.637,0,0,1,67.089,41.4Z" transform="translate(-57.535 -31.844)" fill="#fe9901"/>
          <path id="Caminho_2268" data-name="Caminho 2268" d="M134.193,131.16a5.625,5.625,0,0,1-3.378,1.541l4.791,4.791,3.38-1.539Z" transform="translate(-116.718 -113.491)" fill="#aca6d6"/>
          <g id="Grupo_2016" data-name="Grupo 2016" transform="translate(47.406 44.989)">
            <path id="Caminho_2269" data-name="Caminho 2269" d="M380.316,335.9a10.455,10.455,0,0,0-2.54-4.13l-1.468-1.468a20.437,20.437,0,0,1-2.7,7.421,10.456,10.456,0,0,0,3.181,1.7l4.473,1.469a.411.411,0,0,0,.519-.519Z" transform="translate(-373.612 -330.302)" fill="#c2bce0"/>
          </g>
          <path id="Caminho_2270" data-name="Caminho 2270" d="M381.786,366.726l-.949-2.889-1.584-.52a10.453,10.453,0,0,1-4.059-2.472,19.689,19.689,0,0,1-1.581,3.231,10.455,10.455,0,0,0,3.181,1.7l4.473,1.469A.412.412,0,0,0,381.786,366.726Z" transform="translate(-326.207 -311.666)" fill="#aca6d6"/>
          <g id="Grupo_2017" data-name="Grupo 2017" transform="translate(4.724 4.724)">
            <path id="Caminho_2271" data-name="Caminho 2271" d="M148.8,42.1l-1.256-3.562a1.372,1.372,0,0,0-1-.884l-3.775-.824a1.372,1.372,0,0,0-1.263.37L138.516,40.2a5.669,5.669,0,0,1,3.923,4.123l2.4-2.4a.411.411,0,0,1,.4-.106l3.074.824A.412.412,0,0,0,148.8,42.1Z" transform="translate(-128.086 -36.8)" fill="#fea613"/>
            <path id="Caminho_2272" data-name="Caminho 2272" d="M67.5,119.531a.411.411,0,0,1,.106-.4l2.4-2.4a5.669,5.669,0,0,1-4.118-3.928l-3,3a1.372,1.372,0,0,0-.37,1.263l.824,3.775a1.372,1.372,0,0,0,.884,1l3.562,1.256a.412.412,0,0,0,.534-.495Z" transform="translate(-62.491 -102.382)" fill="#fea613"/>
          </g>
          <circle id="Elipse_21" data-name="Elipse 21" cx="5.808" cy="5.808" r="5.808" transform="translate(7.756 7.756)" fill="#fb8801"/>
          <circle id="Elipse_22" data-name="Elipse 22" cx="2.963" cy="2.963" r="2.963" transform="translate(10.601 10.601)" fill="#fedf30"/>
          <path id="Caminho_2273" data-name="Caminho 2273" d="M107.807,84.493a2.964,2.964,0,0,0,3.225.644,2.963,2.963,0,1,1-3.869-3.869A2.964,2.964,0,0,0,107.807,84.493Z" transform="translate(-94.728 -70.443)" fill="#fed402"/>
          <circle id="Elipse_23" data-name="Elipse 23" cx="4.149" cy="4.149" r="4.149" fill="#fe9901"/>
          <path id="Caminho_2274" data-name="Caminho 2274" d="M35.142,23.491a4.149,4.149,0,0,1-6.819-1.48,4.149,4.149,0,1,0,7.771,0A4.134,4.134,0,0,1,35.142,23.491Z" transform="translate(-28.06 -19.316)" fill="#fb8801"/>
        </g>
      </g>
    </g>
    <g id="Grupo_2023" data-name="Grupo 2023" transform="translate(25.308 18.658)">
      <path id="Caminho_2275" data-name="Caminho 2275" d="M134.1,136.11l-18.082,8.232a1.22,1.22,0,0,0-.715,1.111v12.9c0,12.586,7.829,19.113,18.855,23.48a1.217,1.217,0,0,0,.895,0c11.026-4.367,18.855-10.895,18.855-23.48v-12.9a1.22,1.22,0,0,0-.715-1.111l-18.082-8.232A1.22,1.22,0,0,0,134.1,136.11Z" transform="translate(-115.299 -136.001)" fill="#d88a55"/>
      <path id="Caminho_2276" data-name="Caminho 2276" d="M155.415,200.614a.616.616,0,0,1-.473,0c-11.051-4.61-15.794-10.664-15.794-20.035V169.394a.61.61,0,0,1,.357-.555l15.421-7.021a.61.61,0,0,1,.506,0l15.421,7.021a.61.61,0,0,1,.357.555V180.58C171.209,189.951,166.466,196,155.415,200.614Z" transform="translate(-135.876 -158.229)" fill="#fac600"/>
      <path id="Caminho_2277" data-name="Caminho 2277" d="M143.79,181.709V170.524a.61.61,0,0,1,.357-.555l14.592-6.644-3.31-1.507a.61.61,0,0,0-.506,0L139.5,168.839a.61.61,0,0,0-.357.555V180.58c0,9.371,4.743,15.425,15.794,20.035a.616.616,0,0,0,.473,0q.45-.188.885-.379C147.587,195.82,143.79,190.092,143.79,181.709Z" transform="translate(-135.874 -158.229)" fill="#e8b800"/>
      <g id="Grupo_2021" data-name="Grupo 2021" transform="translate(6.344 15.226)">
        <path id="Caminho_2278" data-name="Caminho 2278" d="M164.087,247.215l-2.483,4.3a.451.451,0,0,0,.391.677h4.965a.451.451,0,0,0,.391-.677l-2.483-4.3a.451.451,0,0,0-.781,0Z" transform="translate(-161.543 -246.989)" fill="#fff"/>
        <path id="Caminho_2279" data-name="Caminho 2279" d="M163.892,251.515l1.729-3-.753-1.3a.451.451,0,0,0-.782,0l-2.483,4.3a.451.451,0,0,0,.391.677h2.288A.451.451,0,0,1,163.892,251.515Z" transform="translate(-161.543 -246.989)" fill="#eaf6ff"/>
        <path id="Caminho_2280" data-name="Caminho 2280" d="M310.22,247.215l-2.483,4.3a.451.451,0,0,0,.391.677h4.965a.451.451,0,0,0,.391-.677l-2.483-4.3a.451.451,0,0,0-.781,0Z" transform="translate(-287.629 -246.989)" fill="#fff"/>
        <path id="Caminho_2281" data-name="Caminho 2281" d="M310.006,251.515l1.738-3.011L311,247.215a.451.451,0,0,0-.782,0l-2.483,4.3a.451.451,0,0,0,.391.677h2.27A.451.451,0,0,1,310.006,251.515Z" transform="translate(-287.628 -246.989)" fill="#eaf6ff"/>
      </g>
      <path id="Caminho_2282" data-name="Caminho 2282" d="M211.138,225.694l6.478-9.248a.752.752,0,0,0-.616-1.183H204.044a.752.752,0,0,0-.616,1.183l6.478,9.248A.752.752,0,0,0,211.138,225.694Z" transform="translate(-191.22 -204.389)" fill="#fff"/>
      <path id="Caminho_2283" data-name="Caminho 2283" d="M208.053,216.446a.752.752,0,0,1,.616-1.183h-4.624a.752.752,0,0,0-.616,1.183l6.478,9.248a.752.752,0,0,0,1.232,0l1.7-2.422Z" transform="translate(-191.22 -204.389)" fill="#eaf6ff"/>
      <path id="Caminho_2284" data-name="Caminho 2284" d="M230.7,360.208l1.158,2.117a.451.451,0,0,0,.179.179l2.117,1.158a.451.451,0,0,1,0,.792l-2.117,1.158a.451.451,0,0,0-.179.179l-1.158,2.117a.451.451,0,0,1-.792,0l-1.158-2.117a.451.451,0,0,0-.179-.179l-2.117-1.158a.451.451,0,0,1,0-.792l2.117-1.158a.451.451,0,0,0,.179-.179l1.158-2.117A.451.451,0,0,1,230.7,360.208Z" transform="translate(-211.006 -329.247)" fill="#fff"/>
      <g id="Grupo_2022" data-name="Grupo 2022" transform="translate(15.217 33.522)">
        <path id="Caminho_2285" data-name="Caminho 2285" d="M231.551,383.814l-1.158-2.117a.451.451,0,0,0-.179-.179l-2.117-1.158-.006,0-1.633.893a.451.451,0,0,0,0,.792l2.117,1.158a.451.451,0,0,1,.179.179l1.158,2.117a.451.451,0,0,0,.792,0l.889-1.625A.45.45,0,0,1,231.551,383.814Z" transform="translate(-226.223 -380.355)" fill="#eaf6ff"/>
      </g>
    </g>
    <path id="Caminho_2286" data-name="Caminho 2286" d="M200.157,316.567H183.283a1.783,1.783,0,1,1,0-3.567h16.874a1.783,1.783,0,1,1,0,3.567Z" transform="translate(-147.11 -270.06)" fill="#fff"/>
    <path id="Caminho_2287" data-name="Caminho 2287" d="M185.959,314.783A1.783,1.783,0,0,1,187.742,313h-4.459a1.783,1.783,0,1,0,0,3.567h4.459A1.783,1.783,0,0,1,185.959,314.783Z" transform="translate(-147.11 -270.06)" fill="#eaf6ff"/>
  </g>
</svg>
